# xmcd
# 
# Track frame offsets:
#     150
#     18009
#     36181
#     55335
#     79199
#     96355
#     106081
#     127847
#     152469
#     171136
# 
# Disc length: 2563
# 
# Revision: 6
# Processed by: cddbd v1.5.2PL0 Copyright (c) Steve Scherf et al.
# Submitted via: fre:ac v1.1beta1pre5
# 
DISCID=6b0a010a
DTITLE=Radiohead - In Rainbows
DYEAR=2008
DGENRE=Rock
TTITLE0=15 Step
TTITLE1=Bodysnatchers
TTITLE2=Nude
TTITLE3=Weird Fishes - Arpeggi
TTITLE4=All I Need
TTITLE5=Faust Arp
TTITLE6=Reckoner
TTITLE7=House of Cards
TTITLE8=Jigsaw Falling into Place
TTITLE9=Videotape
EXTD=
EXTT0=
EXTT1=
EXTT2=
EXTT3=
EXTT4=
EXTT5=
EXTT6=
EXTT7=
EXTT8=
EXTT9=
PLAYORDER=
